<?xml version="1.0" standalone="no"?>
<!DOCTYPE svg PUBLIC "-//W3C//DTD SVG 20010904//EN"
 "http://www.w3.org/TR/2001/REC-SVG-20010904/DTD/svg10.dtd">
<svg version="1.0" xmlns="http://www.w3.org/2000/svg"
 width="1240.000000pt" height="373.000000pt" viewBox="0 0 1240.000000 373.000000"
 preserveAspectRatio="xMidYMid meet">

<g transform="translate(0.000000,373.000000) scale(0.100000,-0.100000)"
fill="#000000" stroke="none">
<path d="M10095 3719 c-512 -75 -922 -472 -1010 -977 -19 -108 -19 -306 0
-413 42 -240 154 -457 330 -635 165 -167 346 -266 601 -329 6 -2 9 -16 6 -33
-3 -25 -10 -31 -36 -36 -18 -4 -53 -19 -78 -35 -83 -53 -89 -74 -147 -566 -28
-237 -51 -450 -51 -474 0 -56 41 -132 89 -165 62 -43 229 -67 309 -45 55 15
124 79 140 130 19 58 114 879 110 946 -5 77 -42 136 -105 167 -36 18 -42 25
-43 54 l0 32 79 0 c155 0 330 41 488 115 77 36 93 41 93 27 0 -9 -32 -333 -71
-718 -40 -386 -69 -709 -66 -718 6 -14 32 -16 217 -16 209 0 210 0 220 22 5
13 32 257 60 543 28 286 54 528 58 538 5 13 79 -150 246 -542 l239 -561 213 0
c125 0 215 4 219 10 3 5 44 379 90 832 112 1083 109 1053 102 1072 -6 14 -32
16 -217 16 -209 0 -211 0 -219 -22 -4 -13 -32 -262 -62 -555 -30 -293 -57
-529 -60 -525 -4 4 -107 243 -229 532 -122 289 -228 535 -236 548 -8 12 -24
22 -35 22 -13 0 -19 5 -16 13 83 193 108 274 126 410 30 217 -9 460 -105 662
-113 239 -345 470 -578 574 -207 93 -459 131 -671 100z m336 -194 c220 -38
402 -136 560 -301 292 -306 361 -762 172 -1139 -63 -124 -64 -125 -146 -125
-40 0 -77 -4 -84 -8 -6 -4 -16 -50 -22 -101 -6 -52 -16 -100 -23 -107 -36 -35
-198 -126 -272 -153 -143 -51 -230 -64 -390 -58 -162 6 -255 27 -382 87 -272
126 -477 369 -556 657 -30 109 -32 382 -4 493 100 395 422 694 816 759 87 14
240 12 331 -4z m-279 -2431 c9 -3 18 -10 20 -17 6 -17 -97 -860 -106 -876 -6
-9 -25 -11 -70 -6 -89 9 -96 13 -96 44 0 44 99 852 106 863 6 9 104 4 146 -8z"/>
<path d="M10366 3403 c-10 -64 -8 -83 12 -83 25 0 118 -25 184 -50 135 -50
291 -182 375 -318 81 -129 132 -322 120 -454 l-5 -57 32 -7 c18 -3 46 -4 62
-2 l29 3 -1 120 c-1 135 -18 217 -65 331 -84 202 -243 370 -446 473 -69 34
-220 81 -263 81 -24 0 -28 -5 -34 -37z"/>
<path d="M221 2198 c-12 -35 -225 -2133 -218 -2152 6 -14 34 -16 245 -16 180
0 242 3 249 12 6 7 27 177 47 378 20 201 39 386 43 413 l6 47 341 0 c258 0
346 3 359 13 25 18 68 454 46 468 -8 5 -169 9 -357 9 l-344 0 6 38 c3 20 10
84 16 142 5 58 13 124 16 148 l5 42 434 0 c315 0 436 3 441 11 9 16 55 450 48
461 -3 4 -313 8 -690 8 l-684 0 -9 -22z"/>
<path d="M1985 1949 c-4 -5 -34 -268 -66 -582 -32 -315 -76 -741 -98 -947 -21
-206 -36 -378 -34 -382 7 -13 431 -10 439 3 13 22 201 1893 191 1907 -12 16
-422 18 -432 1z"/>
<path d="M2801 1938 c-5 -13 -19 -120 -31 -238 -12 -118 -54 -539 -95 -935
-40 -396 -71 -723 -69 -727 3 -5 274 -8 603 -8 467 0 601 3 609 13 15 18 51
389 39 405 -7 9 -97 12 -388 12 l-379 0 4 23 c13 61 148 1446 143 1460 -6 15
-30 17 -217 17 -209 0 -210 0 -219 -22z"/>
<path d="M4091 1947 c-17 -21 -52 -400 -38 -409 7 -4 105 -8 220 -8 158 0 207
-3 207 -12 0 -7 -34 -340 -75 -741 -42 -400 -73 -732 -70 -738 10 -15 435 -12
440 3 3 7 34 301 70 653 36 352 70 678 75 725 5 47 10 91 10 98 0 9 49 12 214
12 159 0 216 3 224 13 12 15 48 378 39 401 -6 15 -66 16 -655 16 -526 0 -652
-3 -661 -13z"/>
<path d="M5774 1949 c-8 -14 -203 -1901 -197 -1911 2 -5 273 -8 602 -8 467 0
601 3 609 13 15 18 51 389 39 405 -7 9 -97 12 -386 12 l-376 0 16 158 c10 86
18 158 18 160 1 1 137 2 304 2 166 0 307 4 314 8 16 10 54 393 41 410 -8 9
-84 12 -315 12 l-305 0 6 33 c3 17 11 89 17 160 l12 127 383 0 c249 0 385 4
389 10 10 16 48 389 41 405 -5 13 -89 15 -605 15 -427 0 -602 -3 -607 -11z"/>
<path d="M7373 1952 c-8 -5 -41 -296 -97 -847 -48 -462 -91 -878 -96 -925 -5
-47 -10 -100 -10 -117 l0 -33 214 0 c159 0 216 3 223 13 6 6 21 119 33 250 16
165 27 237 35 237 7 0 65 -75 128 -168 64 -92 140 -201 170 -242 l53 -75 247
-3 c155 -1 247 1 247 7 0 6 -82 128 -183 273 -101 145 -186 268 -190 274 -3 6
22 26 59 48 127 73 259 219 325 359 66 141 88 338 54 472 -64 249 -253 425
-505 471 -82 15 -685 20 -707 6z m604 -460 c85 -44 142 -154 128 -250 -9 -66
-49 -144 -95 -186 -65 -59 -115 -79 -208 -84 l-83 -5 5 34 c3 19 15 129 26
244 11 116 23 225 26 244 l5 33 77 -4 c52 -3 91 -12 119 -26z"/>
<path d="M8910 444 c-103 -44 -170 -175 -140 -270 51 -158 231 -192 355 -67
42 41 75 114 75 162 0 63 -53 147 -111 177 -36 18 -134 17 -179 -2z"/>
</g>
</svg>
